<svg xmlns="http://www.w3.org/2000/svg" width="24.182" height="24.433" viewBox="0 0 24.182 24.433">
  <g id="lupa" transform="translate(-216.104 985.149)">
    <path id="Path_18" data-name="Path 18" d="M112.737-857.521a9.048,9.048,0,0,0-2.174.393,8.782,8.782,0,0,0-3.532,2.084,8.881,8.881,0,0,0-2.71,5.278,10.7,10.7,0,0,0-.036,2.162,8.849,8.849,0,0,0,1.256,3.756,9.024,9.024,0,0,0,6.445,4.249,11.39,11.39,0,0,0,2.419.016,9.329,9.329,0,0,0,3.453-1.192l.348-.209.288.281.292.284.106-.122c.06-.065.461-.468.891-.9a21.076,21.076,0,0,0,1.514-1.544c-.007-.013-.126-.14-.265-.287a2.965,2.965,0,0,1-.258-.281,1.992,1.992,0,0,1,.133-.221,9.191,9.191,0,0,0,1.279-3.575,11.388,11.388,0,0,0,0-2.352,9.008,9.008,0,0,0-2.286-4.9,9.076,9.076,0,0,0-5.524-2.867A13.563,13.563,0,0,0,112.737-857.521Zm1.365,1.678a6.369,6.369,0,0,1,1.378.3,7.369,7.369,0,0,1,4,3.079,7.436,7.436,0,0,1,.716,6.391,7.345,7.345,0,0,1-4.629,4.545,7.148,7.148,0,0,1-2.346.362,7.239,7.239,0,0,1-4.43-1.488,7.688,7.688,0,0,1-1.955-2.246,7.045,7.045,0,0,1-.948-3.628,6.312,6.312,0,0,1,.229-1.847,6.718,6.718,0,0,1,.61-1.569,7.255,7.255,0,0,1,3.333-3.225,7.372,7.372,0,0,1,2.515-.7A10.6,10.6,0,0,1,114.1-855.843Z" transform="translate(111.924 -127.561)" fill="#9b9b9b" stroke="#e3e0e0" stroke-width="0.1"/>
    <path id="Path_19" data-name="Path 19" d="M186.405-729.95a8.014,8.014,0,0,0-1.159,1.07,6.731,6.731,0,0,0-1.626,3.353,8.662,8.662,0,0,0-.025,2.084,6.98,6.98,0,0,0,2.3,4.109,6.571,6.571,0,0,0,1.581,1.066.535.535,0,0,0,.651-.376c.045-.234-.045-.352-.5-.634a6.7,6.7,0,0,1-1.2-.917,5.814,5.814,0,0,1-1.794-5.081,4.744,4.744,0,0,1,.373-1.338,5.96,5.96,0,0,1,1.663-2.265,5.642,5.642,0,0,0,.52-.495.486.486,0,0,0,.049-.227A.521.521,0,0,0,186.405-729.95Z" transform="translate(35 -251.588)" fill="#9b9b9b" stroke="#e3e0e0" stroke-width="0.1"/>
    <path id="Path_20" data-name="Path 20" d="M564.465-369.756c-.5.51-.746.769-1.265,1.307l-.769.791-.23.234.068.082c.058.063,2.492,2.81,3.608,4.064.123.142.642.725,1.148,1.3,1.171,1.323,1.311,1.462,1.664,1.627a2.52,2.52,0,0,0,.9.225,2.456,2.456,0,0,0,.905-.225,2.323,2.323,0,0,0,1.122-1.263,1.658,1.658,0,0,0,.1-.633,2.005,2.005,0,0,0-.24-1.171,2.046,2.046,0,0,0-.574-.709c-.938-.9-1.784-1.709-2.988-2.851l-2.012-1.918c-.824-.788-1.165-1.1-1.191-1.1A3.422,3.422,0,0,0,564.465-369.756Z" transform="matrix(1, -0.017, 0.017, 1, -325.117, -590.885)" fill="#9b9b9b" stroke="#e3e0e0" stroke-width="0.1"/>
  </g>
</svg>
