<svg xmlns="http://www.w3.org/2000/svg" xmlns:xlink="http://www.w3.org/1999/xlink" width="483" height="128" viewBox="0 0 483 128">
  <defs>
    <clipPath id="clip-path">
      <rect id="Rectangle_10" data-name="Rectangle 10" width="483" height="128" fill="#fff" stroke="#707070" stroke-width="1"/>
    </clipPath>
    <clipPath id="clip-path-2">
      <rect id="Rectangle_6" data-name="Rectangle 6" width="422.897" height="128.187" transform="translate(0 0)" fill="#fff" stroke="#707070" stroke-width="2.3"/>
    </clipPath>
  </defs>
  <g id="Mask_Group_2" data-name="Mask Group 2" clip-path="url(#clip-path)">
    <g id="Mask_Group_1" data-name="Mask Group 1" transform="translate(30.173 0)" clip-path="url(#clip-path-2)">
      <g id="Logo-branco_1_" data-name="Logo-branco (1)" transform="translate(-0.002 23.612)">
        <path id="Path_6" data-name="Path 6" d="M105.6-86.448a14.5,14.5,0,0,0-3.554,2.2c-6.875,5.812-7.9,16.408-2.592,26.406.6,1.069.93,2.051.764,2.166a30.568,30.568,0,0,1-6.875,1.884,29.09,29.09,0,0,1-10.827-.628c-10.629-2.794-9.534-2.638-16.775-2.638a59.989,59.989,0,0,0-17.6,2.074A64.1,64.1,0,0,0,35.185-50.93c.1.156-.033.19-.3.095a41.777,41.777,0,0,0-6.577,2.074c-12.259,4.533-14.351,5.168-17.873,5.256-2.556.064-3.223.19-3.586.628-.366.513-.3.6.664.943,3.356,1.131,6.709.315,21.855-5.34A138.734,138.734,0,0,1,55.777-54.75a49.577,49.577,0,0,1,9.632-.692A29.7,29.7,0,0,1,76.371-54.1c10.5,2.669,12.557,2.889,17.35,2.051,1.429-.256,2.624-.472,2.689-.472a12.223,12.223,0,0,1-1.2,1.477c-7.075,8.009-7.574,16.962-1.163,19.915a8.142,8.142,0,0,0,4.085.723c7.5-.4,13.565-5.929,14.248-13.006a22.756,22.756,0,0,0-2.657-12.942,12.333,12.333,0,0,1-.962-2.1c0-.472,2.226-.974,4.218-.974,1.927,0,2.857-.256,2.556-.659a12.994,12.994,0,0,0-6.013.156l-1.694.441-1.694-3.2a17.848,17.848,0,0,1-2.822-10.711,14.319,14.319,0,0,1,.865-6c1.461-3.928,3.622-5.781,6.742-5.781,3.321,0,4.85,1.759,5.083,5.874.165,2.669.5,3.235,1.063,1.795a8.52,8.52,0,0,0-1.084-7.068C114.3-86.982,109.455-87.83,105.6-86.448Zm-2.624,34.49a14.755,14.755,0,0,1,.564,13.006c-2.358,4.743-6.842,7.1-10,5.276-2.424-1.382-3.123-5.717-1.594-9.77a26.586,26.586,0,0,1,5.267-8.007,5.45,5.45,0,0,0,1.4-1.823c-.1-.095-.068-.126.033-.064a2.6,2.6,0,0,0,1.228-.315A4.787,4.787,0,0,1,101.436-54a4.985,4.985,0,0,1,1.542,2.046Z" transform="translate(-6.645 87.113)"/>
        <path id="Path_7" data-name="Path 7" d="M179.077-85.924a12.739,12.739,0,0,0-6.444,4.461,10.913,10.913,0,0,0-2.624,7.666,9.937,9.937,0,0,0,3.985,8.294l2.093,1.823-1.561,1.572a27.712,27.712,0,0,0-3.09,4.053c-6.577,10.616-5.912,22.743,1.429,26.324a10.43,10.43,0,0,0,8.336.22c4.351-2.01,9.434-8.2,12.822-15.639,1.594-3.456,1.9-4.648,1.263-4.9-.333-.126-.732.472-1.4,2.074a46.193,46.193,0,0,1-8.946,14.011c-3.321,3.235-7.048,4.461-9.334,3.048-2.857-1.759-3.123-7.727-.664-15.382a29.38,29.38,0,0,1,7.273-13.075c1.263-1.161,1.529-1.6,1.529-2.543,0-1.351-.333-1.538-2.689-1.538a6.934,6.934,0,0,1-2.657-.513c-1.795-.849-2.592-3.864-1.96-7.507,1-6.125,4.318-10.837,7.607-10.837,3.852,0,5.712,4.179,4.516,10.209a12.489,12.489,0,0,0-.4,3.174c.1.126.564.126,1.03,0,1.9-.441,2.757-6.786,1.429-10.429C189.074-85.642,184.325-87.505,179.077-85.924Z" transform="translate(21.983 87.185)"/>
        <path id="Path_8" data-name="Path 8" d="M377.731-65.155c-2.79,1.664-17.935,10.178-20.161,11.339a26.585,26.585,0,0,1-9.865,2.451c-3.055.064-5.614-.567-11.89-2.794A37.536,37.536,0,0,0,320.8-57.174c-6.444,0-8.6.513-20.76,4.838a13.678,13.678,0,0,1-3.356.6H295l-.2-2.794a11.118,11.118,0,0,0-2.757-7.381c-3.654-3.333-10.2-1.477-12.988,3.676-3.454,6.471-1.263,15.3,4.251,17.026a7.935,7.935,0,0,0,6.709-.659A12.489,12.489,0,0,0,294-48.593l.466-1.728,2.193-.22a14.16,14.16,0,0,0,6.745-2.333c.732-.659.764-.659.962-.095.271.754.2.785,3.524-.377a38.6,38.6,0,0,1,19.166-1.572c1.594.346,5.514,1.507,8.7,2.543,8.9,2.953,12.291,3.392,16.94,2.166a36.1,36.1,0,0,0,4.88-1.728,42.818,42.818,0,0,0,9.488-5.561c-.1-.19-.033-.22.165-.095a90.417,90.417,0,0,0,13.121-7.35c-.068-.19.133-.315.431-.315.366,0,.466-.156.333-.513a4.716,4.716,0,0,1-.2-.628C380.933-66.788,379.756-66.347,377.731-65.155Zm-87.225,3.676a8.356,8.356,0,0,1,2.982,6.817c.165,2.923.1,2.953-1.9,2.01a8.782,8.782,0,0,1-4.684-6.922c.014-2.407,1.442-3.161,3.6-1.9Zm-2.789,7.632a8.1,8.1,0,0,0,3.421,2.482l2.169.974-.233,1.131a10.932,10.932,0,0,1-2.711,5.058c-1.927,1.446-4.02.282-4.983-2.794a22.331,22.331,0,0,1-.3-8.355l.271-1.572.564.785c.274.408,1.071,1.446,1.8,2.292Z" transform="translate(41.722 89.472)"/>
        <path id="Path_9" data-name="Path 9" d="M198.2-64.035a8.782,8.782,0,0,0-5.579,7.319,10.284,10.284,0,0,0,2.857,7.822c2.358,3.015,3.123,4.335,2.79,4.871-.133.22-1.13,1.507-2.193,2.889-4.153,5.245-4.915,8.922-2.358,11.183.7.628,1.2.754,2.89.754a8.772,8.772,0,0,0,8.3-6.063,16.694,16.694,0,0,0-.033-9.958c-.431-1.026-.83-2.1-.93-2.387-.133-.377.564-1.225,2.258-2.7,5.313-4.743,6.078-5.527,5.083-4.963-.542.315-2.524,1.854-4.419,3.425s-3.554,2.889-3.719,2.953a35.406,35.406,0,0,1-4.286-6.345c.065-.031.764-.256,1.561-.513a7.544,7.544,0,0,0,4.383-4.4,3.558,3.558,0,0,0-1.084-3.928A8.474,8.474,0,0,0,198.2-64.035Zm5.88,2.794a5.315,5.315,0,0,1-2.922,4.522c-1.561.818-2.757.879-2.524.095.068-.282.271-1.025.366-1.633.564-2.543,2.326-4.492,3.952-4.335.93.1,1.027.19,1.128,1.354ZM199.66-38.813a8.436,8.436,0,0,1-1,5.527c-.83,1.507-1.263,1.948-2.258,2.325-1.163.408-1.328.408-2.169-.19s-.9-.849-.865-2.356a8.147,8.147,0,0,1,1.429-4.21c1.694-3.076,3.952-5.653,4.484-5.151a11.421,11.421,0,0,1,.377,4.056Z" transform="translate(26.51 89.704)"/>
        <path id="Path_10" data-name="Path 10" d="M249.651-63.761a2.321,2.321,0,0,0-.6,1.131,2.171,2.171,0,0,1-.333.849c-.068,0-.732-.282-1.529-.628a7.679,7.679,0,0,0-8.469,1.664,13.585,13.585,0,0,0-3.023,7.037,6.8,6.8,0,0,0,1.727,5.968,2.986,2.986,0,0,0,2.592,1.025c1.927,0,3.288-.879,5.313-3.425l1.561-2.01v3.738c0,4.146.333,5.781,1.529,7.255,2.193,2.764,5.446.974,8.4-4.587a69.952,69.952,0,0,0,3.852-10.209c.165-.818.133-.879-.3-.533a1.43,1.43,0,0,0-.542.723c0,.156-.664,1.948-1.461,4.02-3.023,7.571-5.381,10.806-6.045,8.26a77.2,77.2,0,0,1,.7-13.76c.632-4.053.632-5.622,0-6.125a4.979,4.979,0,0,0-3.375-.395Zm-1.795,2.953c.431.723.431,1.069-.033,2.82-1.2,4.556-3.389,8.606-5.048,9.36-.865.377-1.03.377-1.429-.156a8.5,8.5,0,0,1,.431-6.153C243.644-60.587,246.4-63.258,247.857-60.807Z" transform="translate(34.25 89.775)"/>
        <path id="Path_11" data-name="Path 11" d="M110.639-62.546a10.663,10.663,0,0,0-7.374,7,12.17,12.17,0,0,0-1.084,6.345,9.955,9.955,0,0,0,.8,5.4,8.278,8.278,0,0,0,4.516,4.179,10.73,10.73,0,0,0,6.506-.6,23.305,23.305,0,0,0,6.829-6,43.608,43.608,0,0,0,4.749-8.26c.732-2.2.068-1.6-1.263,1.1-3.421,6.973-9.068,12.5-12.787,12.5-2.169,0-3.554-2.889-3.554-7.319,0-3.2.133-3.456,1.927-4.053a11.7,11.7,0,0,0,5.422-4.807,5.529,5.529,0,0,0,.355-4.084,5.508,5.508,0,0,0-5.04-1.41Zm3.985,2.23c1.063,1.854-1.461,5.622-4.88,7.319-1.063.513-1.084.513-1.084-.095a16.926,16.926,0,0,1,2.711-6.786c1.193-1.29,2.654-1.51,3.253-.441Z" transform="translate(10.406 89.915)"/>
        <path id="Path_12" data-name="Path 12" d="M215.194-62.343c-1.694,1.1-2.524,5.025-3.055,14.136-.542,9.581-.033,8.355-4.749,12.306a42.433,42.433,0,0,0-8.005,8.073c-3.82,4.838-5.349,8.26-5.349,11.937a6.114,6.114,0,0,0,.764,3.8,7.193,7.193,0,0,0,7.8,2.953c7.9-1.664,12.955-11.057,15.013-27.945a55.518,55.518,0,0,1,3.223-13.193c2.822-8.23,5.614-12.062,7.8-10.742,1.163.692,2.025,5.4,1.594,8.8-.2,1.633-.333,1.915-1.263,2.418a42.224,42.224,0,0,0-6.506,4.838,8.115,8.115,0,0,0-2.556,5.622c.3,1.795,1.2,2.418,3.489,2.387,5.115-.064,9.759-4.743,11.624-11.75l.632-2.356,2.857-.628c2.757-.659,3.489-.943,3.155-1.256a25.76,25.76,0,0,0-4.983.628c-.865.19-.9.126-1.13-1.477-.7-5.435-3.188-9.047-6.178-9.047a5.917,5.917,0,0,0-2.226.441c-2.524,1.256-5.048,5.151-7.176,11.119-.632,1.795-1.2,3.333-1.3,3.425a33.4,33.4,0,0,1,0-4.963c.2-5.653-.133-8.2-1.263-9.36C216.622-62.971,216.191-63,215.194-62.343Zm14.381,14.483a28.394,28.394,0,0,1-1.228,3.3c-1.263,3.174-4.153,6.22-5.812,6.22-1.163,0-1.759-.659-1.759-1.979,0-1.664,3.321-5.34,6.777-7.507C229.344-48.961,229.876-48.961,229.575-47.861Zm-18.3,11.937c-1.927,15.831-6.544,25.537-12.123,25.537-1.4,0-3.088-1.633-3.622-3.487-1.494-5.215,3.253-13.075,13.186-21.738a11.927,11.927,0,0,1,2.391-1.795C211.341-37.4,211.407-36.867,211.274-35.924Z" transform="translate(26.822 89.896)"/>
        <path id="Path_13" data-name="Path 13" d="M263.5-61.806c-4.186,1.854-7.075,7.791-6.677,13.7.466,6.471,4.251,9.863,9.865,8.8l.83-.156-.033,3.3a8.928,8.928,0,0,1-.732,4.615c-1.163,2.136-2.89,2.564-4.649,1.195a7.452,7.452,0,0,1-1.2-7.54c.133-.441,0-.377-.466.256a7.441,7.441,0,0,0-.7,5.5,4.032,4.032,0,0,0,1.529,2.607c1.13.91,1.328.974,3.253.849a6.075,6.075,0,0,0,5.693-3.487,10.352,10.352,0,0,0,.8-5.622v-3.989l1-.659a35.4,35.4,0,0,0,8.436-12.562c.165-.818-.165-.377-1.4,1.728C275.4-46.875,272-42.981,268.822-41.5q-5.53,2.546-6.013-5.653c-.4-6.6,2.391-14.136,5.248-14.136,1.4,0,1.96,1,1.96,3.551,0,2.387.6,2.794,1.13.785a4.581,4.581,0,0,0-1.3-4.556A3.1,3.1,0,0,0,267-62.54,8.5,8.5,0,0,0,263.5-61.806Z" transform="translate(38.04 89.926)"/>
        <path id="Path_14" data-name="Path 14" d="M126.262-61.97c-1.084.408-1.4.943-1.927,3.612a29.352,29.352,0,0,0-.93,7.978c0,4.3.83,6.189,3.188,7.13a5.079,5.079,0,0,0,2.757.282c2.025-.282,4.484-2.638,6.078-5.843.632-1.282,1.429-2.82,1.727-3.425l.564-1.1-.2,2.356c-.664,7.319.033,13.665,1.795,15.8,2.025,2.482,5.78,2.2,8.336-.628,2.291-2.543,4.717-7.978,7.048-15.77,1.827-6.153.8-5.127-1.4,1.382-4.085,12.219-7.772,17.151-9.466,12.69a40.815,40.815,0,0,1,.233-13.006c.366-2.607.764-5.781.865-7.1.165-2.356.165-2.418-.7-2.984a4.822,4.822,0,0,0-4.552.095,28.454,28.454,0,0,0-2.326,4.963c-2.789,7.194-4.88,10.511-6.577,10.511-1.529,0-1.727-2.82-.7-9.229.93-5.561.9-6.566-.2-7.381A4.033,4.033,0,0,0,126.262-61.97Z" transform="translate(14.212 89.964)"/>
      </g>
    </g>
  </g>
</svg>
