<svg xmlns="http://www.w3.org/2000/svg" xmlns:xlink="http://www.w3.org/1999/xlink" width="156" height="50" viewBox="0 0 156 50">
  <defs>
    <clipPath id="clip-path">
      <rect id="Rectangle_6" data-name="Rectangle 6" width="156" height="50" transform="translate(353 15)" fill="#fff" stroke="#707070" stroke-width="1"/>
    </clipPath>
  </defs>
  <g id="Mask_Group_1" data-name="Mask Group 1" transform="translate(-353 -15)" clip-path="url(#clip-path)">
    <g id="Logo-branco_1_" data-name="Logo-branco (1)" transform="translate(350.11 62.085)">
      <path id="Path_6" data-name="Path 6" d="M39.393-37.616a5.31,5.31,0,0,0-1.311.858c-2.536,2.267-2.916,6.4-.956,10.3.221.417.343.8.282.845a10.8,10.8,0,0,1-2.536.735,10.165,10.165,0,0,1-3.994-.245c-3.921-1.09-3.517-1.029-6.188-1.029a20.992,20.992,0,0,0-6.494.809,22.721,22.721,0,0,0-4.779,1.581c.037.061-.012.074-.11.037a14.811,14.811,0,0,0-2.426.809C6.359-21.148,5.587-20.9,4.288-20.866c-.943.025-1.189.074-1.323.245-.135.2-.11.233.245.368,1.238.441,2.475.123,8.062-2.083a49.048,49.048,0,0,1,9.741-2.916,17.316,17.316,0,0,1,3.553-.27A10.4,10.4,0,0,1,28.61-25c3.872,1.041,4.632,1.127,6.4.8.527-.1.968-.184.992-.184a4.729,4.729,0,0,1-.441.576c-2.61,3.124-2.794,6.616-.429,7.768a2.861,2.861,0,0,0,1.507.282,5.59,5.59,0,0,0,5.256-5.073,9.306,9.306,0,0,0-.98-5.048,4.948,4.948,0,0,1-.355-.821c0-.184.821-.38,1.556-.38.711,0,1.054-.1.943-.257a4.541,4.541,0,0,0-2.218.061l-.625.172-.625-1.25a7.269,7.269,0,0,1-1.041-4.178,5.88,5.88,0,0,1,.319-2.34c.539-1.532,1.336-2.255,2.487-2.255,1.225,0,1.789.686,1.875,2.291.061,1.041.184,1.262.392.7a3.485,3.485,0,0,0-.4-2.757C42.6-37.824,40.814-38.155,39.393-37.616Zm-.968,13.453a6.051,6.051,0,0,1,.208,5.073c-.87,1.85-2.524,2.769-3.688,2.058-.894-.539-1.152-2.23-.588-3.811A10.441,10.441,0,0,1,36.3-23.966a2.117,2.117,0,0,0,.515-.711c-.037-.037-.025-.049.012-.025a.917.917,0,0,0,.453-.123,1.685,1.685,0,0,1,.576-.135A1.938,1.938,0,0,1,38.425-24.162Z"/>
      <path id="Path_7" data-name="Path 7" d="M77.057-37.383a4.706,4.706,0,0,0-2.377,1.74,4.413,4.413,0,0,0-.968,2.99,3.962,3.962,0,0,0,1.47,3.235l.772.711-.576.613a10.769,10.769,0,0,0-1.14,1.581c-2.426,4.141-2.181,8.871.527,10.268a3.657,3.657,0,0,0,3.075.086c1.605-.784,3.48-3.2,4.73-6.1.588-1.348.7-1.813.466-1.911-.123-.049-.27.184-.515.809a18.178,18.178,0,0,1-3.3,5.465c-1.225,1.262-2.6,1.74-3.443,1.189-1.054-.686-1.152-3.014-.245-6a11.656,11.656,0,0,1,2.683-5.1c.466-.453.564-.625.564-.992,0-.527-.123-.6-.992-.6a2.437,2.437,0,0,1-.98-.2c-.662-.331-.956-1.507-.723-2.928.368-2.389,1.593-4.227,2.806-4.227,1.421,0,2.107,1.63,1.666,3.982a5.137,5.137,0,0,0-.147,1.238c.037.049.208.049.38,0,.7-.172,1.017-2.647.527-4.068C80.745-37.273,78.993-38,77.057-37.383Z"/>
      <path id="Path_8" data-name="Path 8" d="M157.619-28.39c-1.029.649-6.616,3.97-7.437,4.423a9.379,9.379,0,0,1-3.639.956c-1.127.025-2.071-.221-4.386-1.09a13.2,13.2,0,0,0-5.538-1.176c-2.377,0-3.173.2-7.658,1.887a4.8,4.8,0,0,1-1.238.233H127.1l-.074-1.09a4.485,4.485,0,0,0-1.017-2.879c-1.348-1.3-3.762-.576-4.791,1.434-1.274,2.524-.466,5.967,1.568,6.641a2.788,2.788,0,0,0,2.475-.257,4.934,4.934,0,0,0,1.47-2.622l.172-.674.809-.086A5.041,5.041,0,0,0,130.2-23.6c.27-.257.282-.257.355-.037.1.294.074.306,1.3-.147a13.505,13.505,0,0,1,7.07-.613c.588.135,2.034.588,3.21.992,3.284,1.152,4.534,1.323,6.249.845a12.845,12.845,0,0,0,1.8-.674,15.623,15.623,0,0,0,3.5-2.169c-.037-.074-.012-.086.061-.037a32.891,32.891,0,0,0,4.84-2.867c-.025-.074.049-.123.159-.123.135,0,.172-.061.123-.2a1.918,1.918,0,0,1-.074-.245C158.8-29.027,158.366-28.855,157.619-28.39Zm-32.176,1.434a3.346,3.346,0,0,1,1.1,2.659c.061,1.14.037,1.152-.7.784a3.435,3.435,0,0,1-1.728-2.7C124.12-27.152,124.647-27.446,125.443-26.956Zm-1.029,2.977a3,3,0,0,0,1.262.968l.8.38-.086.441a4.346,4.346,0,0,1-1,1.973c-.711.564-1.483.11-1.838-1.09a9.2,9.2,0,0,1-.11-3.259l.1-.613.208.306C123.851-24.714,124.145-24.309,124.414-23.979Z"/>
      <path id="Path_9" data-name="Path 9" d="M85.781-27.863a3.406,3.406,0,0,0-2.058,2.855,4.148,4.148,0,0,0,1.054,3.051c.87,1.176,1.152,1.691,1.029,1.9-.049.086-.417.588-.809,1.127-1.532,2.046-1.813,3.48-.87,4.362.257.245.441.294,1.066.294a3.261,3.261,0,0,0,3.063-2.365,6.869,6.869,0,0,0-.012-3.884c-.159-.4-.306-.821-.343-.931-.049-.147.208-.478.833-1.054,1.96-1.85,2.242-2.156,1.875-1.936-.2.123-.931.723-1.63,1.336s-1.311,1.127-1.372,1.152a13.882,13.882,0,0,1-1.581-2.475c.024-.012.282-.1.576-.2a2.869,2.869,0,0,0,1.617-1.715,1.439,1.439,0,0,0-.4-1.532A2.966,2.966,0,0,0,85.781-27.863Zm2.169,1.09a2.084,2.084,0,0,1-1.078,1.764c-.576.319-1.017.343-.931.037.025-.11.1-.4.135-.637.208-.992.858-1.752,1.458-1.691C87.877-27.262,87.913-27.226,87.95-26.772Zm-1.63,8.748a3.452,3.452,0,0,1-.368,2.156c-.306.588-.466.76-.833.907-.429.159-.49.159-.8-.074s-.331-.331-.319-.919a3.3,3.3,0,0,1,.527-1.642c.625-1.2,1.458-2.205,1.654-2.009A4.7,4.7,0,0,1,86.32-18.024Z"/>
      <path id="Path_10" data-name="Path 10" d="M107.616-27.728a.923.923,0,0,0-.221.441.876.876,0,0,1-.123.331c-.025,0-.27-.11-.564-.245a2.722,2.722,0,0,0-3.124.649,5.457,5.457,0,0,0-1.115,2.745,2.756,2.756,0,0,0,.637,2.328,1.072,1.072,0,0,0,.956.4c.711,0,1.213-.343,1.96-1.336l.576-.784v1.458c0,1.617.123,2.255.564,2.83.809,1.078,2.009.38,3.1-1.789a28.279,28.279,0,0,0,1.421-3.982c.061-.319.049-.343-.11-.208a.556.556,0,0,0-.2.282c0,.061-.245.76-.539,1.568-1.115,2.953-1.985,4.215-2.23,3.222a31.823,31.823,0,0,1,.257-5.367c.233-1.581.233-2.193,0-2.389A1.747,1.747,0,0,0,107.616-27.728Zm-.662,1.152c.159.282.159.417-.012,1.1-.441,1.777-1.25,3.357-1.862,3.651-.319.147-.38.147-.527-.061a3.489,3.489,0,0,1,.159-2.4C105.4-26.49,106.415-27.532,106.954-26.576Z"/>
      <path id="Path_11" data-name="Path 11" d="M47.541-27.2a4.038,4.038,0,0,0-2.72,2.732,4.988,4.988,0,0,0-.4,2.475,4.084,4.084,0,0,0,.294,2.107,3.128,3.128,0,0,0,1.666,1.63,3.759,3.759,0,0,0,2.4-.233A8.767,8.767,0,0,0,51.3-20.83a17.28,17.28,0,0,0,1.752-3.222c.27-.858.025-.625-.466.429-1.262,2.72-3.345,4.877-4.717,4.877-.8,0-1.311-1.127-1.311-2.855,0-1.25.049-1.348.711-1.581a4.405,4.405,0,0,0,2-1.875A2.269,2.269,0,0,0,49.4-26.65,1.958,1.958,0,0,0,47.541-27.2Zm1.47.87c.392.723-.539,2.193-1.8,2.855-.392.2-.4.2-.4-.037a6.823,6.823,0,0,1,1-2.647C48.251-26.662,48.79-26.748,49.011-26.331Z"/>
      <path id="Path_12" data-name="Path 12" d="M92.165-27.128c-.625.429-.931,1.96-1.127,5.514-.2,3.737-.012,3.259-1.752,4.8a16.145,16.145,0,0,0-2.953,3.149c-1.409,1.887-1.973,3.222-1.973,4.656a2.5,2.5,0,0,0,.282,1.483,2.586,2.586,0,0,0,2.879,1.152c2.916-.649,4.779-4.313,5.538-10.9a22.685,22.685,0,0,1,1.189-5.146c1.041-3.21,2.071-4.705,2.879-4.19.429.27.747,2.107.588,3.431-.074.637-.123.747-.466.943a15.67,15.67,0,0,0-2.4,1.887,3.248,3.248,0,0,0-.943,2.193c.11.7.441.943,1.287.931,1.887-.025,3.6-1.85,4.288-4.583l.233-.919,1.054-.245c1.017-.257,1.287-.368,1.164-.49a9.014,9.014,0,0,0-1.838.245c-.319.074-.331.049-.417-.576-.257-2.12-1.176-3.529-2.279-3.529a2.08,2.08,0,0,0-.821.172c-.931.49-1.862,2.009-2.647,4.337-.233.7-.441,1.3-.478,1.336a13.773,13.773,0,0,1,0-1.936c.074-2.205-.049-3.2-.466-3.651C92.692-27.373,92.533-27.385,92.165-27.128Zm5.305,5.649a11.483,11.483,0,0,1-.453,1.287c-.466,1.238-1.532,2.426-2.144,2.426-.429,0-.649-.257-.649-.772,0-.649,1.225-2.083,2.5-2.928C97.385-21.908,97.581-21.908,97.47-21.479Zm-6.751,4.656c-.711,6.175-2.414,9.961-4.472,9.961-.515,0-1.139-.637-1.336-1.36-.551-2.034,1.2-5.1,4.864-8.479a4.43,4.43,0,0,1,.882-.7C90.744-17.4,90.768-17.191,90.719-16.823Z"/>
      <path id="Path_13" data-name="Path 13" d="M114.122-26.907c-1.544.723-2.61,3.039-2.463,5.342.172,2.524,1.568,3.847,3.639,3.431l.306-.061-.012,1.287a3.662,3.662,0,0,1-.27,1.8c-.429.833-1.066,1-1.715.466a3.04,3.04,0,0,1-.441-2.941c.049-.172,0-.147-.172.1a3.05,3.05,0,0,0-.257,2.144,1.593,1.593,0,0,0,.564,1.017c.417.355.49.38,1.2.331a2.232,2.232,0,0,0,2.1-1.36,4.248,4.248,0,0,0,.294-2.193V-19.1l.368-.257a13.88,13.88,0,0,0,3.112-4.9c.061-.319-.061-.147-.515.674-1.348,2.5-2.6,4.019-3.774,4.595-1.36.662-2.1-.074-2.218-2.205-.147-2.573.882-5.514,1.936-5.514.515,0,.723.392.723,1.385,0,.931.221,1.09.417.306a1.855,1.855,0,0,0-.478-1.777,1.108,1.108,0,0,0-1.054-.4A2.99,2.99,0,0,0,114.122-26.907Z"/>
      <path id="Path_14" data-name="Path 14" d="M54.708-26.956c-.4.159-.515.368-.711,1.409a12.074,12.074,0,0,0-.343,3.112c0,1.679.306,2.414,1.176,2.781a1.779,1.779,0,0,0,1.017.11c.747-.11,1.654-1.029,2.242-2.279.233-.5.527-1.1.637-1.336l.208-.429-.074.919c-.245,2.855.012,5.33.662,6.163.747.968,2.132.858,3.075-.245.845-.992,1.74-3.112,2.6-6.151.674-2.4.294-2-.515.539-1.507,4.766-2.867,6.69-3.492,4.95a16.822,16.822,0,0,1,.086-5.073c.135-1.017.282-2.255.319-2.769.061-.919.061-.943-.257-1.164a1.694,1.694,0,0,0-1.679.037,11.4,11.4,0,0,0-.858,1.936c-1.029,2.806-1.8,4.1-2.426,4.1-.564,0-.637-1.1-.257-3.6.343-2.169.331-2.561-.074-2.879A1.418,1.418,0,0,0,54.708-26.956Z"/>
    </g>
  </g>
</svg>
